<?xml version="1.0" standalone="no"?>
<!DOCTYPE svg PUBLIC "-//W3C//DTD SVG 20010904//EN"
 "http://www.w3.org/TR/2001/REC-SVG-20010904/DTD/svg10.dtd">
<svg version="1.0" xmlns="http://www.w3.org/2000/svg"
 width="194.000000pt" height="194.000000pt" viewBox="0 0 194.000000 194.000000"
 preserveAspectRatio="xMidYMid meet">
<metadata>
Created by potrace 1.11, written by Peter Selinger 2001-2013
</metadata>
<g transform="translate(0.000000,194.000000) scale(0.100000,-0.100000)"
fill="#000000" stroke="none">
<path d="M755 1220 l0 -190 57 0 58 0 0 145 c0 144 0 145 26 161 14 9 21 20
17 24 -10 9 -100 40 -133 46 l-25 4 0 -190z"/>
<path d="M569 1258 c-1 -7 -2 -43 -3 -80 0 -36 -5 -70 -9 -74 -4 -5 -37 -9
-72 -9 l-64 0 25 33 25 32 -183 -1 c-178 0 -208 -9 -87 -24 30 -4 71 -10 93
-14 l39 -6 -44 -43 -44 -42 220 0 220 0 -2 79 c-2 74 0 79 23 89 13 7 24 15
24 20 0 4 -30 16 -67 26 -38 10 -74 20 -80 23 -7 2 -13 -1 -14 -9z"/>
<path d="M946 1250 c-2 -3 -2 -111 -1 -240 0 -129 -2 -244 -6 -255 -4 -11 -21
-28 -38 -38 l-31 -18 0 150 0 151 -58 0 -57 0 1 -122 c0 -68 -3 -130 -7 -138
-4 -8 -20 -23 -37 -32 l-29 -17 0 150 c0 82 -2 152 -5 154 -3 3 -81 4 -174 3
l-169 -3 116 -23 115 -24 -1 -186 c0 -103 1 -192 3 -199 2 -7 38 11 90 43 47
30 89 54 92 54 3 0 5 -36 5 -80 0 -44 1 -80 4 -80 2 0 28 18 58 40 38 29 53
47 53 65 0 16 10 30 30 42 17 9 30 21 30 26 0 4 4 6 9 3 5 -3 8 -28 6 -56 -2
-28 1 -53 6 -56 5 -2 33 11 63 30 53 34 54 36 51 75 -3 46 -10 43 93 44 l52 0
0 269 c0 147 -3 269 -7 269 -27 4 -255 4 -257 -1z m144 -264 c0 -93 -4 -157
-10 -161 -13 -8 -12 -15 -14 155 -2 149 -1 160 15 160 5 0 9 -65 9 -154z"/>
<path d="M1245 1251 c-3 -2 -5 -146 -5 -318 l0 -314 60 33 60 33 0 230 0 231
27 -1 c27 0 28 2 28 55 l0 55 -83 0 c-46 1 -85 -1 -87 -4z"/>
<path d="M1444 985 l1 -270 130 0 130 0 0 270 0 270 -131 0 -132 0 2 -270z
m145 0 c0 -87 -4 -157 -9 -160 -13 -8 -13 -11 -16 150 -3 146 -1 165 15 165 6
0 10 -62 10 -155z"/>
</g>
</svg>
